<svg version="1.2" xmlns="http://www.w3.org/2000/svg" viewBox="0 0 359 140" width="359" height="140">
	<title>logo</title>
	<style>
		.s0 { fill: #1e7a32 } 
	</style>
	<g>
		<path class="s0" d="m52.7 3c-0.3 0.8-1 3.6-1.7 6.2-0.7 2.6-2.2 5.6-3.4 6.7-2.3 2.2-9.5 5.1-13 5.2-1.1 0 0.3 0.7 3.2 1.4 9.2 2.5 12.4 5.9 13.8 14.4 1 5.9 1.9 5.8 3.3-0.4 1.7-7.6 4.9-11 12.4-13.4 3.4-1.1 5.4-2 4.3-2-3.4-0.1-9.3-2.3-12.1-4.5-1.8-1.5-3.2-4.2-4.5-8.6-1-3.6-2-5.8-2.3-5z"/>
		<path class="s0" d="m147.5 16.2c-1.1 2.4-2.1 4.6-2.3 5-0.2 0.5 1.3 0.8 3.4 0.8 3.1 0 4.4-0.8 8.6-5l4.9-5h-6.3-6.3z"/>
		<path class="s0" d="m134 53v26h17 17v-4.5-4.5h-11.5-11.5v-6-6h9.5 9.5v-5-5h-9.5-9.5v-5.5-5.5h11.5 11.5v-5-5h-17-17z"/>
		<path class="s0" d="m188.5 29.4c-9.5 4.4-14.5 12.6-14.4 23.5 0.1 7.7 1.2 11.3 5.5 17.3 4.6 6.5 10.8 9.3 20.8 9.3 7 0 8.7-0.4 12.6-2.7 4.5-2.7 8-6 8-7.8 0-0.5-1.9-2-4.2-3.4l-4.3-2.5-2.5 2.3c-3.7 3.4-6.4 4.6-10.7 4.6-10.2 0-16.6-11.1-13.3-23.1 1.2-4.3 5.2-8.2 10.3-10 4.4-1.6 9.6-0.2 13.7 3.7l2.6 2.4 3.7-2.6c2-1.3 3.7-2.8 3.7-3.2 0-1.3-6.3-6.9-9.7-8.6-4.9-2.5-15.6-2.1-21.8 0.8z"/>
		<path class="s0" d="m229 53v26h15.5 15.5v-4.5-4.5h-10-10v-21.5-21.5h-5.5-5.5z"/>
		<path class="s0" d="m282.2 33.2c-1.3 3.5-2.7 7.2-3.2 8.3-0.4 1.1-2.7 6.9-5 13-2.3 6-4.6 11.9-5.1 13-1 2.2-3.9 10.5-3.9 11.1 0 0.2 2.4 0.4 5.4 0.4h5.4l1.8-5 1.8-5h10.7 10.7l1.7 5 1.7 5h5.4c3 0 5.4-0.4 5.4-0.9 0-0.4-0.9-3-2-5.7-1-2.7-3.8-9.9-6-15.9-2.3-6.1-5.8-15.2-7.8-20.3l-3.5-9.2h-5.6-5.6zm11.7 16.7c1.7 4.7 3.1 8.8 3.1 9.3 0 0.4-3.1 0.8-7 0.8-3.8 0-7-0.3-7-0.8 0-0.4 1.2-3.9 2.6-7.7 1.5-3.9 2.9-8 3.1-9.3 0.8-3.3 1.7-1.9 5.2 7.7z"/>
		<path class="s0" d="m313 32v5h7 7v21 21h5.5 5.5v-21-21h7.5 7.5v-5-5h-20-20z"/>
		<path class="s0" d="m22.8 41.4c-9.1 8.7-14.3 15.9-18 24.8-1.9 4.5-2.2 7.1-2.2 17.8 0 11 0.3 13.3 2.6 19.2 7.7 20.2 22.2 33.5 41.8 38.4 7.9 2 20.9 1.4 29-1.2 12.2-4.1 25.2-15.8 31-28 4.1-8.6 5.4-15.1 5.4-28.9l0.1-12-17.3-17c-9.5-9.4-17.7-17-18.2-17-0.5 0-8.8 7.6-18.5 16.8l-17.5 16.9v20.9c0 11.5 0.3 20.9 0.6 20.9 0.3 0 2.4-1.1 4.7-2.4 6-3.5 12-5.3 24.9-7.5 6.2-1 14-2.9 17.3-4 6.3-2.2 15.9-8.3 17.5-11 0.4-0.9 1.1-1.3 1.5-1 0.3 0.4-2.2 3.5-5.7 7.1-7.9 8-15.2 11.6-32.9 16.3-7.3 2-15.3 4.7-17.9 6.1-5.6 3-13.5 10.8-12.6 12.2 0.8 1.4 9 4 14.7 4.8 8.3 1.1 24-4.5 31.3-11.2 1.5-1.4 2.9-2.4 3.2-2.1 0.9 0.9-9.5 9.4-15.7 12.7-6 3.3-7 3.5-16 3.5-8.8 0-10.1-0.3-16.1-3.3-19.1-9.6-29-28.5-26.1-50.1 0.9-6.9 5.7-20.4 8.5-23.5 0.8-1 0.5 0.2-2.6 9.9-3.6 11.3-3 27.3 1.2 36.6l2 4.2 0.3-6.9c0.4-6 1.3-8.6 6.7-20 6.8-14.1 8.5-21.2 7.6-30.4-0.7-6.2-4-18.7-5.3-19.4-0.4-0.3-4.6 3.2-9.3 7.8zm62.2 34.1v8.5h-8.5-8.5v-8.5-8.5h8.5 8.5z"/>
		<path class="s0" d="m251 96.9c-4.8 1-7.3 2.5-10.4 6.2-5.6 6.6-7.1 15-4 22.5 4.2 10.3 14.2 15.1 25.6 12.4 10-2.4 16.9-12.9 15.4-23.2-1.9-12.8-13.6-20.7-26.6-17.9zm11.4 8.3c7 3.1 8.7 16.4 2.9 22.2-5.2 5.2-15.7 4.3-19.3-1.7-2.4-3.9-2.6-11.6-0.5-15.7 2.7-5.3 10.8-7.6 16.9-4.8z"/>
		<path class="s0" d="m134 117.4v20.6h8.8c11.2 0 15.4-1.3 20.6-6 9.5-8.8 8.4-23.9-2.3-31.5-4-2.8-4.9-3-15.7-3.3l-11.4-0.4zm21-11.3c4.6 2.6 6 5.4 6 12 0 4.5-0.4 5.5-3.4 8.5-3.1 3.1-4 3.4-9 3.4h-5.6v-13-13h4.1c2.4 0 5.8 0.9 7.9 2.1z"/>
		<path class="s0" d="m175.8 104l-1.5 7h2.7c2.2 0 3.1-1 5.8-6.5 1.8-3.6 3.2-6.8 3.2-7 0-0.3-1.9-0.5-4.3-0.5h-4.4z"/>
		<path class="s0" d="m192 117.5v20.5h4 3.9l0.3-13 0.3-13 9.8 13c9.7 12.8 9.9 13 13.8 13h3.9v-20.5-20.5h-4-3.9l-0.3 12.9-0.3 12.9-6-8c-3.3-4.5-6.5-8.6-7-9.2-0.6-0.6-2.3-2.8-3.9-4.9-2.4-3.2-3.4-3.7-6.7-3.7h-3.9z"/>
		<path class="s0" d="m285 117.5v20.5h4 4v-6.8c0-3.8 0.3-7.1 0.6-7.4 1.6-1.6 4.9 1.2 8.5 7.3 4.1 6.9 4.2 6.9 8.5 6.9 2.4 0 4.4-0.3 4.4-0.6 0-0.4-2-3.7-4.5-7.5-2.5-3.8-4.5-7.2-4.5-7.7 0-0.5 1.1-1.4 2.3-1.9 2.8-1.3 5.7-6.9 5.7-10.8 0-4-2.7-8.9-5.9-10.8-2.2-1.3-5.3-1.7-13-1.7h-10.1zm18.3-12.1c2.2 1.7 2.2 6.4 0 8.8-1.1 1.2-3 1.8-6 1.8h-4.3v-6-6h4.3c2.3 0 5 0.7 6 1.4z"/>
		<path class="s0" d="m322 117.6v20.6l10.3-0.4c7.8-0.2 11.1-0.8 14.2-2.4 11.1-5.8 14.1-21.7 5.9-31.3-5-5.8-8.7-7.1-20.5-7.1h-9.9zm19.9-12.2c5 2.6 6.6 6.7 6.2 15.7-0.1 1.4-1.5 3.9-3.2 5.7-2.8 2.9-3.7 3.2-9 3.2h-5.9v-13-13h4.5c2.6 0 5.9 0.7 7.4 1.4z"/>
	</g>
</svg>